<svg width="227" height="227" viewBox="0 0 227 227" fill="none" xmlns="http://www.w3.org/2000/svg">
<g style="mix-blend-mode:multiply">
<mask id="path-1-inside-1_183_530" fill="white">
<path d="M33.948 79.212V113.16H79.212V79.212H33.948ZM11.316 45.264H169.74V28.29C169.74 18.9155 162.14 11.316 152.766 11.316H28.29C18.9155 11.316 11.316 18.9155 11.316 28.29V45.264ZM130.132 56.58H11.316V164.082C11.316 173.456 18.9155 181.056 28.29 181.056H124.476V169.74H107.502C104.377 169.74 101.844 167.207 101.844 164.082C101.844 160.957 104.377 158.424 107.502 158.424H124.476V147.108H107.502C104.377 147.108 101.844 144.575 101.844 141.45C101.844 138.325 104.377 135.792 107.502 135.792H124.476V124.476H107.502C104.377 124.476 101.844 121.943 101.844 118.818V73.554C101.844 70.4292 104.377 67.896 107.502 67.896H125.042C125.891 63.7154 127.661 59.8696 130.132 56.58ZM181.056 45.264H198.03C213.654 45.264 226.32 57.9299 226.32 73.554V198.03C226.32 213.654 213.654 226.32 198.03 226.32H152.766C137.142 226.32 124.476 213.654 124.476 198.03V192.372H28.29C12.6659 192.372 0 179.706 0 164.082V28.29C0 12.6659 12.6659 0 28.29 0H152.766C168.39 0 181.056 12.6659 181.056 28.29V45.264ZM124.476 113.16V79.212H113.16V113.16H124.476ZM28.29 67.896H84.87C87.9948 67.896 90.528 70.4292 90.528 73.554V118.818C90.528 121.943 87.9948 124.476 84.87 124.476H28.29C25.1652 124.476 22.632 121.943 22.632 118.818V73.554C22.632 70.4292 25.1652 67.896 28.29 67.896ZM135.792 73.554V198.03C135.792 207.404 143.392 215.004 152.766 215.004H198.03C207.404 215.004 215.004 207.404 215.004 198.03V73.554C215.004 64.1795 207.404 56.58 198.03 56.58H152.766C143.392 56.58 135.792 64.1795 135.792 73.554ZM28.29 147.108C25.1652 147.108 22.632 144.575 22.632 141.45C22.632 138.325 25.1652 135.792 28.29 135.792H84.87C87.9948 135.792 90.528 138.325 90.528 141.45C90.528 144.575 87.9948 147.108 84.87 147.108H28.29ZM28.29 169.74C25.1652 169.74 22.632 167.207 22.632 164.082C22.632 160.957 25.1652 158.424 28.29 158.424H62.238C65.3628 158.424 67.896 160.957 67.896 164.082C67.896 167.207 65.3628 169.74 62.238 169.74H28.29ZM152.766 79.212H198.03C201.155 79.212 203.688 81.7452 203.688 84.87V107.502C203.688 110.627 201.155 113.16 198.03 113.16H152.766C149.641 113.16 147.108 110.627 147.108 107.502V84.87C147.108 81.7452 149.641 79.212 152.766 79.212ZM158.424 90.528V101.844H192.372V90.528H158.424ZM152.766 135.792C149.641 135.792 147.108 133.259 147.108 130.134C147.108 127.009 149.641 124.476 152.766 124.476H198.03C201.155 124.476 203.688 127.009 203.688 130.134C203.688 133.259 201.155 135.792 198.03 135.792H152.766ZM152.766 158.424C149.641 158.424 147.108 155.891 147.108 152.766C147.108 149.641 149.641 147.108 152.766 147.108H186.714C189.839 147.108 192.372 149.641 192.372 152.766C192.372 155.891 189.839 158.424 186.714 158.424H152.766ZM22.632 22.632H33.948V33.948H22.632V22.632ZM45.264 22.632H56.58V33.948H45.264V22.632ZM67.896 22.632H79.212V33.948H67.896V22.632ZM164.082 203.688C160.957 203.688 158.424 201.155 158.424 198.03C158.424 194.905 160.957 192.372 164.082 192.372H186.714C189.839 192.372 192.372 194.905 192.372 198.03C192.372 201.155 189.839 203.688 186.714 203.688H164.082Z"/>
</mask>
<path d="M33.948 79.212V113.16H79.212V79.212H33.948ZM11.316 45.264H169.74V28.29C169.74 18.9155 162.14 11.316 152.766 11.316H28.29C18.9155 11.316 11.316 18.9155 11.316 28.29V45.264ZM130.132 56.58H11.316V164.082C11.316 173.456 18.9155 181.056 28.29 181.056H124.476V169.74H107.502C104.377 169.74 101.844 167.207 101.844 164.082C101.844 160.957 104.377 158.424 107.502 158.424H124.476V147.108H107.502C104.377 147.108 101.844 144.575 101.844 141.45C101.844 138.325 104.377 135.792 107.502 135.792H124.476V124.476H107.502C104.377 124.476 101.844 121.943 101.844 118.818V73.554C101.844 70.4292 104.377 67.896 107.502 67.896H125.042C125.891 63.7154 127.661 59.8696 130.132 56.58ZM181.056 45.264H198.03C213.654 45.264 226.32 57.9299 226.32 73.554V198.03C226.32 213.654 213.654 226.32 198.03 226.32H152.766C137.142 226.32 124.476 213.654 124.476 198.03V192.372H28.29C12.6659 192.372 0 179.706 0 164.082V28.29C0 12.6659 12.6659 0 28.29 0H152.766C168.39 0 181.056 12.6659 181.056 28.29V45.264ZM124.476 113.16V79.212H113.16V113.16H124.476ZM28.29 67.896H84.87C87.9948 67.896 90.528 70.4292 90.528 73.554V118.818C90.528 121.943 87.9948 124.476 84.87 124.476H28.29C25.1652 124.476 22.632 121.943 22.632 118.818V73.554C22.632 70.4292 25.1652 67.896 28.29 67.896ZM135.792 73.554V198.03C135.792 207.404 143.392 215.004 152.766 215.004H198.03C207.404 215.004 215.004 207.404 215.004 198.03V73.554C215.004 64.1795 207.404 56.58 198.03 56.58H152.766C143.392 56.58 135.792 64.1795 135.792 73.554ZM28.29 147.108C25.1652 147.108 22.632 144.575 22.632 141.45C22.632 138.325 25.1652 135.792 28.29 135.792H84.87C87.9948 135.792 90.528 138.325 90.528 141.45C90.528 144.575 87.9948 147.108 84.87 147.108H28.29ZM28.29 169.74C25.1652 169.74 22.632 167.207 22.632 164.082C22.632 160.957 25.1652 158.424 28.29 158.424H62.238C65.3628 158.424 67.896 160.957 67.896 164.082C67.896 167.207 65.3628 169.74 62.238 169.74H28.29ZM152.766 79.212H198.03C201.155 79.212 203.688 81.7452 203.688 84.87V107.502C203.688 110.627 201.155 113.16 198.03 113.16H152.766C149.641 113.16 147.108 110.627 147.108 107.502V84.87C147.108 81.7452 149.641 79.212 152.766 79.212ZM158.424 90.528V101.844H192.372V90.528H158.424ZM152.766 135.792C149.641 135.792 147.108 133.259 147.108 130.134C147.108 127.009 149.641 124.476 152.766 124.476H198.03C201.155 124.476 203.688 127.009 203.688 130.134C203.688 133.259 201.155 135.792 198.03 135.792H152.766ZM152.766 158.424C149.641 158.424 147.108 155.891 147.108 152.766C147.108 149.641 149.641 147.108 152.766 147.108H186.714C189.839 147.108 192.372 149.641 192.372 152.766C192.372 155.891 189.839 158.424 186.714 158.424H152.766ZM22.632 22.632H33.948V33.948H22.632V22.632ZM45.264 22.632H56.58V33.948H45.264V22.632ZM67.896 22.632H79.212V33.948H67.896V22.632ZM164.082 203.688C160.957 203.688 158.424 201.155 158.424 198.03C158.424 194.905 160.957 192.372 164.082 192.372H186.714C189.839 192.372 192.372 194.905 192.372 198.03C192.372 201.155 189.839 203.688 186.714 203.688H164.082Z" stroke="url(#paint0_linear_183_530)" stroke-width="8" mask="url(#path-1-inside-1_183_530)"/>
</g>
<defs>
<linearGradient id="paint0_linear_183_530" x1="113.16" y1="0" x2="113.16" y2="226.32" gradientUnits="userSpaceOnUse">
<stop stop-color="#FFC700"/>
<stop offset="0.534375" stop-color="#FFA100"/>
<stop offset="1" stop-color="#FF7A00"/>
</linearGradient>
</defs>
</svg>
