<svg width="234" height="164" viewBox="0 0 234 164" fill="none" xmlns="http://www.w3.org/2000/svg">
<path d="M109.005 40.844C109.005 62.313 91.6299 79.688 70.1609 79.688C48.6918 79.688 31.3169 62.313 31.3169 40.844C31.3169 19.375 48.6918 2 70.1609 2C91.6299 2 109.005 19.375 109.005 40.844ZM70.1609 101.193C79.2991 101.193 87.8742 99.0021 95.5934 95.3577H98.1682C120.257 95.3577 138.179 113.28 138.179 135.369V145.871C138.179 154.431 131.234 161.376 122.675 161.376H17.6471C9.08774 161.376 2.14258 154.431 2.14258 145.871V135.369C2.14258 113.28 20.0646 95.3577 42.1535 95.3577H44.7302C52.4797 99.0007 61.0196 101.193 70.1609 101.193ZM208.197 46.6789C208.197 64.9023 193.412 79.688 175.188 79.688C156.965 79.688 142.179 64.9023 142.179 46.6789C142.179 28.4555 156.965 13.6697 175.188 13.6697C193.412 13.6697 208.197 28.4555 208.197 46.6789ZM175.188 98.2751C181.033 98.2751 186.512 97.1002 191.64 95.3577H192.693C214.162 95.3577 231.537 112.733 231.537 134.202C231.537 142.761 224.592 149.706 216.032 149.706H153.841C153.846 149.597 153.849 149.486 153.849 149.372V135.369C153.849 121.673 148.761 109.22 140.543 99.5356C145.748 96.9198 151.513 95.3577 157.684 95.3577H158.736C163.865 97.1002 169.344 98.2751 175.188 98.2751Z" stroke="url(#paint0_linear_183_528)" stroke-width="4"/>
<defs>
<linearGradient id="paint0_linear_183_528" x1="116.84" y1="0" x2="116.84" y2="163.376" gradientUnits="userSpaceOnUse">
<stop stop-color="#FFC700"/>
<stop offset="1" stop-color="#FF7A00"/>
</linearGradient>
</defs>
</svg>
