<svg width="188" height="176" viewBox="0 0 188 176" fill="none" xmlns="http://www.w3.org/2000/svg">
<path d="M183.662 106.464L184.215 107.57H185.451H185.534C184.824 112.406 181.56 116.945 176.276 120.476C170.284 124.48 161.885 127.03 152.49 127.03C143.095 127.03 134.696 124.48 128.704 120.476C123.42 116.945 120.156 112.406 119.446 107.57H119.529H120.766L121.318 106.463L150.96 47.0979L151.825 45.3643L150.12 44.4443C149.565 44.1448 149.058 43.6839 148.598 42.9554L148.527 42.8425L148.441 42.7401C138.173 30.4554 122.846 22.5288 105.612 22.1642L103.57 22.121V24.1638V152.49V154.49H105.57H115.3V164.22V166.22H117.3H138.76V173.95H48.92V166.22H70.38H72.38V164.22V154.49H82.11H84.1111L84.11 152.489L84.0396 24.1627L84.0385 22.117L81.9934 22.1643C64.6616 22.5651 49.179 30.4625 38.586 42.827L38.5202 42.9039L38.4625 42.9869C38.1504 43.4361 37.7273 43.8345 37.1991 44.1564L35.6271 45.1143L36.4516 46.7601L66.3631 106.466L66.9163 107.57H68.1513H68.2337C67.5245 112.406 64.2601 116.945 58.9758 120.476C52.9835 124.48 44.5846 127.03 35.19 127.03C25.7954 127.03 17.3965 124.48 11.4042 120.476C6.11992 116.945 2.85552 112.406 2.14626 107.57H2.2287H3.46477L4.01755 106.464L33.3426 47.8144L34.7898 44.92H31.5537H23.46C21.3271 44.92 19.595 43.1879 19.595 41.055C19.595 38.9221 21.3271 37.19 23.46 37.19L23.468 37.19L32.3007 37.1548L33.1623 37.1514L33.7516 36.5229C45.9458 23.5187 63.0186 15.1475 82.1968 14.3146L84.11 14.2315V12.3165V11.73C84.11 6.35961 88.4696 2 93.84 2C99.2104 2 103.57 6.35961 103.57 11.73V11.9666L103.625 12.1968L103.766 12.7833L104.118 14.2519L105.628 14.3148C124.513 15.1012 141.44 23.4877 153.483 36.5459L154.077 37.19H154.953H164.22C166.353 37.19 168.085 38.9221 168.085 41.055C168.085 43.1879 166.353 44.92 164.22 44.92H156.126H152.89L154.337 47.8144L183.662 106.464ZM58.65 107.57H61.9081L60.4334 104.665L36.9734 58.4485L35.19 54.9352L33.4066 58.4485L9.94661 104.665L8.47185 107.57H11.73H58.65ZM127.247 104.665L125.772 107.57H129.03H175.95H179.208L177.733 104.665L154.273 58.4485L152.49 54.9352L150.707 58.4485L127.247 104.665Z" stroke="url(#paint0_linear_183_532)" stroke-width="4"/>
<defs>
<linearGradient id="paint0_linear_183_532" x1="93.84" y1="0" x2="93.84" y2="175.95" gradientUnits="userSpaceOnUse">
<stop stop-color="#FFC700"/>
<stop offset="1" stop-color="#FF7A00"/>
</linearGradient>
</defs>
</svg>
